# xmcd CD database file
#
# Track frame offsets:
#	150
#	20840
#	40215
#	60430
#	79972
#	100257
#	118247
#	137322
#	157475
#	176537
#	193517
#	211817
#	232652
#	250015
#
# Disc length: 3586 seconds
#
# Revision: 0
# Processed by: cddbd v1.5.1PL0 Copyright (c) Steve Scherf et al.
# Submitted via: CDex 1.51
#
DISCID=b80e000e
DTITLE=Paul Whiteman - A "Pops" Concert
DYEAR=1900
DGENRE=Jazz
TTITLE0=My Melancholy Baby
TTITLE1=Washboard Blues
TTITLE2=Sweet Sue - Just You
TTITLE3=Among My Souvenirs
TTITLE4=The Man I Love
TTITLE5=High Water
TTITLE6=La Golondrina
TTITLE7=My Heart Stood Still
TTITLE8=Together
TTITLE9=Moonlight and Roses
TTITLE10=La Paloma
TTITLE11=Chlo-e (Song of the Swamp)
TTITLE12=Southern Medley
TTITLE13=Jeannine (I Dream of Lilac Time)
EXTD=
EXTT0=
EXTT1=
EXTT2=
EXTT3=
EXTT4=
EXTT5=
EXTT6=
EXTT7=
EXTT8=
EXTT9=
EXTT10=
EXTT11=
EXTT12=
EXTT13=
PLAYORDER=
